<?xml version="1.0" encoding="UTF-8" standalone="no"?>
<svg xmlns="http://www.w3.org/2000/svg" viewBox="0 0 130 130">
<g id="g10" transform="matrix(0.37475998,-0.35908615,0.17637943,0.16900259,-79.658317,90.579678)">
	<path
   d="m 262.956,320.284 c -5.663,-4.974 -9.154,-8.198 -9.252,-11.329 L 258.839,27.938 C 259,20.523 256.233,13.521 251.046,8.22 245.859,2.919 238.917,0 231.5,0 c -7.417,0 -14.358,2.919 -19.544,8.221 -5.187,5.301 -7.955,12.303 -7.793,19.692 l 5.135,281.044 c -0.099,3.13 -3.591,6.354 -9.252,11.327 -10.011,8.794 -23.721,20.838 -23.721,45.825 0,29.194 4.29,52.341 12.749,68.797 9.448,18.38 24.119,28.094 42.426,28.094 18.307,0 32.979,-9.715 42.427,-28.095 8.459,-16.456 12.749,-39.603 12.749,-68.797 0,-24.986 -13.71,-37.03 -23.72,-45.824 z m -2.369,107.763 C 253.685,441.474 244.171,448 231.5,448 c -12.671,0 -22.185,-6.527 -29.086,-19.953 -7.255,-14.113 -11.089,-35.531 -11.089,-61.939 0,-18.198 9.466,-26.514 18.62,-34.555 6.999,-6.147 14.235,-12.504 14.354,-22.503 0.001,-0.076 0,-0.151 -0.001,-0.227 L 219.159,27.612 c -0.073,-3.347 1.177,-6.508 3.518,-8.901 2.341,-2.393 5.475,-3.711 8.823,-3.711 3.348,0 6.482,1.318 8.823,3.711 2.342,2.393 3.591,5.554 3.518,8.927 l -5.138,281.185 c -0.001,0.076 -0.002,0.151 -0.001,0.227 0.119,9.999 7.355,16.356 14.354,22.503 9.154,8.042 18.62,16.357 18.62,34.555 0,26.409 -3.834,47.827 -11.089,61.939 z"
   id="path2" />
	<path
   d="m 238.85,27.931 c 0,-1.98 -0.8,-3.91 -2.19,-5.31 -1.4,-1.39 -3.33,-2.19 -5.31,-2.19 -1.97,0 -3.91,0.8 -5.3,2.19 -1.4,1.4 -2.2,3.33 -2.2,5.31 0,1.97 0.8,3.9 2.2,5.3 1.39,1.4 3.33,2.2 5.3,2.2 1.98,0 3.91,-0.8 5.31,-2.2 1.39,-1.4 2.19,-3.33 2.19,-5.3 z"
   id="path4" />
	<path
   d="m 247.613,376.52 c -0.165,3.656 -1.896,36.006 -11.9,46.012 -2.929,2.929 -2.928,7.678 0.001,10.606 1.464,1.464 3.383,2.196 5.303,2.196 1.92,0 3.839,-0.732 5.304,-2.197 13.004,-13.006 15.715,-43.455 16.277,-55.942 0.187,-4.138 -3.017,-7.644 -7.155,-7.83 -4.15,-0.19 -7.645,3.017 -7.83,7.155 z"
   id="path6" />
	<path
   d="m 236.639,338.877 c -2.733,3.112 -2.427,7.851 0.685,10.584 2.879,2.529 5.404,4.789 7.148,6.835 1.484,1.74 3.59,2.634 5.711,2.634 1.721,0 3.451,-0.589 4.862,-1.792 3.152,-2.688 3.529,-7.421 0.842,-10.573 -2.394,-2.807 -5.339,-5.453 -8.663,-8.373 -3.112,-2.732 -7.85,-2.427 -10.585,0.685 z"
   id="path8" />
</g>
</svg>
